<?xml version="1.0" encoding="UTF-8" standalone="no"?>
<svg width="111px" height="110px" viewBox="0 0 111 110" version="1.1" xmlns="http://www.w3.org/2000/svg" xmlns:xlink="http://www.w3.org/1999/xlink" xmlns:sketch="http://www.bohemiancoding.com/sketch/ns">
    <!-- Generator: Sketch 3.3.3 (12081) - http://www.bohemiancoding.com/sketch -->
    <title>Logo Copy</title>
    <desc>Created with Sketch.</desc>
    <defs></defs>
    <g id="Page-1" stroke="none" stroke-width="1" fill="none" fill-rule="evenodd" sketch:type="MSPage">
        <g id="1024" sketch:type="MSArtboardGroup" transform="translate(-312.000000, -100.000000)">
            <g id="Logo-Copy" sketch:type="MSLayerGroup" transform="translate(313.000000, 101.000000)">
                <path d="M0.320754717,5.92857155 C0.320754717,5.92857155 6.76754127,0.265306122 9.44645489,0.265306122 C11.6571139,0.265306122 14.4017355,5.8805679 16.8806751,5.92857143 C19.6161025,5.98154173 22.4942802,0.228225494 25.4746094,0.265306122 C27.6937172,0.292915794 29.9653774,5.86360954 32.2814343,5.92857118 C34.456155,5.98956858 36.5246922,0.219347012 38.7565964,0.265306122 C41.0559395,0.312653927 43.3537733,5.84044988 45.6855837,5.92857162 C48.0521538,6.01800696 50.3324085,0.202139917 52.7013561,0.265306122 C54.9140394,0.324305655 57.0857405,5.82199276 59.2749116,5.9285715 C61.5310344,6.03840976 63.7796792,0.191736244 65.9833432,0.265306122 C68.3989271,0.345951004 70.7319086,5.76507755 73.0483122,5.92857149 C75.4232636,6.09619778 77.7338115,0.171978931 79.9656913,0.265306122 C82.2998092,0.362908448 84.6032963,5.67719254 86.7354805,5.92857167 C89.1234131,6.21010287 91.3199638,0.167531826 93.3891878,0.265306122 C95.7983587,0.379143478 98.3018157,5.29742522 100.190485,5.92857155 C105.201603,7.6031627 109,0.265306122 109,0.265306122" id="Line" stroke="#1500A2" stroke-width="1.125" stroke-linecap="square" sketch:type="MSShapeGroup"></path>
                <path d="M0.320754717,17.2551022 C0.320754717,17.2551022 6.76754127,11.5918367 9.44645489,11.5918367 C11.6571139,11.5918367 14.4017355,17.2070985 16.8806751,17.255102 C19.6161025,17.3080723 22.4942802,11.5547561 25.4746094,11.5918367 C27.6937172,11.6194464 29.9653774,17.1901402 32.2814343,17.2551018 C34.456155,17.3160992 36.5246922,11.5458776 38.7565964,11.5918367 C41.0559395,11.6391845 43.3537733,17.1669805 45.6855837,17.2551022 C48.0521538,17.3445376 50.3324085,11.5286705 52.7013561,11.5918367 C54.9140394,11.6508363 57.0857405,17.1485234 59.2749116,17.2551021 C61.5310344,17.3649404 63.7796792,11.5182669 65.9833432,11.5918367 C68.3989271,11.6724816 70.7319086,17.0916082 73.0483122,17.2551021 C75.4232636,17.4227284 77.7338115,11.4985095 79.9656913,11.5918367 C82.2998092,11.6894391 84.6032963,17.0037232 86.7354805,17.2551023 C89.1234131,17.5366335 91.3199638,11.4940624 93.3891878,11.5918367 C95.7983587,11.7056741 98.3018157,16.6239558 100.190485,17.2551022 C105.201603,18.9296933 109,11.5918367 109,11.5918367" id="Line-Copy" stroke="#1500A2" stroke-width="1.125" stroke-linecap="square" sketch:type="MSShapeGroup"></path>
                <path d="M0.320754717,28.5816328 C0.320754717,28.5816328 6.76754127,22.9183673 9.44645489,22.9183673 C11.6571139,22.9183673 14.4017355,28.5336291 16.8806751,28.5816327 C19.6161025,28.634603 22.4942802,22.8812867 25.4746094,22.9183673 C27.6937172,22.945977 29.9653774,28.5166708 32.2814343,28.5816324 C34.456155,28.6426298 36.5246922,22.8724082 38.7565964,22.9183673 C41.0559395,22.9657152 43.3537733,28.4935111 45.6855837,28.5816328 C48.0521538,28.6710682 50.3324085,22.8552011 52.7013561,22.9183673 C54.9140394,22.9773669 57.0857405,28.475054 59.2749116,28.5816327 C61.5310344,28.691471 63.7796792,22.8447975 65.9833432,22.9183673 C68.3989271,22.9990122 70.7319086,28.4181388 73.0483122,28.5816327 C75.4232636,28.749259 77.7338115,22.8250402 79.9656913,22.9183673 C82.2998092,23.0159697 84.6032963,28.3302538 86.7354805,28.5816329 C89.1234131,28.8631641 91.3199638,22.8205931 93.3891878,22.9183673 C95.7983587,23.0322047 98.3018157,27.9504864 100.190485,28.5816328 C105.201603,30.2562239 109,22.9183673 109,22.9183673" id="Line-Copy-2" stroke="#1500A2" stroke-width="1.125" stroke-linecap="square" sketch:type="MSShapeGroup"></path>
                <path d="M0.320754717,39.9081634 C0.320754717,39.9081634 6.76754127,34.244898 9.44645489,34.244898 C11.6571139,34.244898 14.4017355,39.8601597 16.8806751,39.9081633 C19.6161025,39.9611336 22.4942802,34.2078173 25.4746094,34.244898 C27.6937172,34.2725076 29.9653774,39.8432014 32.2814343,39.908163 C34.456155,39.9691604 36.5246922,34.1989388 38.7565964,34.244898 C41.0559395,34.2922458 43.3537733,39.8200417 45.6855837,39.9081635 C48.0521538,39.9975988 50.3324085,34.1817318 52.7013561,34.244898 C54.9140394,34.3038975 57.0857405,39.8015846 59.2749116,39.9081633 C61.5310344,40.0180016 63.7796792,34.1713281 65.9833432,34.244898 C68.3989271,34.3255428 70.7319086,39.7446694 73.0483122,39.9081633 C75.4232636,40.0757896 77.7338115,34.1515708 79.9656913,34.244898 C82.2998092,34.3425003 84.6032963,39.6567844 86.7354805,39.9081635 C89.1234131,40.1896947 91.3199638,34.1471237 93.3891878,34.244898 C95.7983587,34.3587353 98.3018157,39.2770171 100.190485,39.9081634 C105.201603,41.5827545 109,34.244898 109,34.244898" id="Line-Copy-3" stroke="#1500A2" stroke-width="1.125" stroke-linecap="square" sketch:type="MSShapeGroup"></path>
                <path d="M0.320754717,51.234694 C0.320754717,51.234694 6.76754127,45.5714286 9.44645489,45.5714286 C11.6571139,45.5714286 14.4017355,51.1866903 16.8806751,51.2346939 C19.6161025,51.2876642 22.4942802,45.5343479 25.4746094,45.5714286 C27.6937172,45.5990382 29.9653774,51.169732 32.2814343,51.2346936 C34.456155,51.295691 36.5246922,45.5254695 38.7565964,45.5714286 C41.0559395,45.6187764 43.3537733,51.1465723 45.6855837,51.2346941 C48.0521538,51.3241294 50.3324085,45.5082624 52.7013561,45.5714286 C54.9140394,45.6304281 57.0857405,51.1281152 59.2749116,51.234694 C61.5310344,51.3445322 63.7796792,45.4978587 65.9833432,45.5714286 C68.3989271,45.6520735 70.7319086,51.0712 73.0483122,51.2346939 C75.4232636,51.4023202 77.7338115,45.4781014 79.9656913,45.5714286 C82.2998092,45.6690309 84.6032963,50.983315 86.7354805,51.2346941 C89.1234131,51.5162253 91.3199638,45.4736543 93.3891878,45.5714286 C95.7983587,45.6852659 98.3018157,50.6035477 100.190485,51.234694 C105.201603,52.9092852 109,45.5714286 109,45.5714286" id="Line-Copy-4" stroke="#1500A2" stroke-width="1.125" stroke-linecap="square" sketch:type="MSShapeGroup"></path>
                <path d="M0.320754717,62.5612246 C0.320754717,62.5612246 6.76754127,56.8979592 9.44645489,56.8979592 C11.6571139,56.8979592 14.4017355,62.513221 16.8806751,62.5612245 C19.6161025,62.6141948 22.4942802,56.8608786 25.4746094,56.8979592 C27.6937172,56.9255689 29.9653774,62.4962626 32.2814343,62.5612242 C34.456155,62.6222216 36.5246922,56.8520001 38.7565964,56.8979592 C41.0559395,56.945307 43.3537733,62.4731029 45.6855837,62.5612247 C48.0521538,62.65066 50.3324085,56.834793 52.7013561,56.8979592 C54.9140394,56.9569587 57.0857405,62.4546458 59.2749116,62.5612246 C61.5310344,62.6710628 63.7796792,56.8243893 65.9833432,56.8979592 C68.3989271,56.9786041 70.7319086,62.3977306 73.0483122,62.5612245 C75.4232636,62.7288508 77.7338115,56.804632 79.9656913,56.8979592 C82.2998092,56.9955615 84.6032963,62.3098456 86.7354805,62.5612247 C89.1234131,62.8427559 91.3199638,56.8001849 93.3891878,56.8979592 C95.7983587,57.0117965 98.3018157,61.9300783 100.190485,62.5612246 C105.201603,64.2358158 109,56.8979592 109,56.8979592" id="Line-Copy-5" stroke="#1500A2" stroke-width="1.125" stroke-linecap="square" sketch:type="MSShapeGroup"></path>
                <path d="M0.320754717,73.8877552 C0.320754717,73.8877552 6.76754127,68.2244898 9.44645489,68.2244898 C11.6571139,68.2244898 14.4017355,73.8397516 16.8806751,73.8877551 C19.6161025,73.9407254 22.4942802,68.1874092 25.4746094,68.2244898 C27.6937172,68.2520995 29.9653774,73.8227932 32.2814343,73.8877549 C34.456155,73.9487523 36.5246922,68.1785307 38.7565964,68.2244898 C41.0559395,68.2718376 43.3537733,73.7996336 45.6855837,73.8877553 C48.0521538,73.9771906 50.3324085,68.1613236 52.7013561,68.2244898 C54.9140394,68.2834893 57.0857405,73.7811764 59.2749116,73.8877552 C61.5310344,73.9975934 63.7796792,68.1509199 65.9833432,68.2244898 C68.3989271,68.3051347 70.7319086,73.7242612 73.0483122,73.8877552 C75.4232636,74.0553815 77.7338115,68.1311626 79.9656913,68.2244898 C82.2998092,68.3220921 84.6032963,73.6363762 86.7354805,73.8877553 C89.1234131,74.1692865 91.3199638,68.1267155 93.3891878,68.2244898 C95.7983587,68.3383272 98.3018157,73.2566089 100.190485,73.8877552 C105.201603,75.5623464 109,68.2244898 109,68.2244898" id="Line-Copy-6" stroke="#1500A2" stroke-width="1.125" stroke-linecap="square" sketch:type="MSShapeGroup"></path>
                <path d="M0.320754717,85.2142858 C0.320754717,85.2142858 6.76754127,79.5510204 9.44645489,79.5510204 C11.6571139,79.5510204 14.4017355,85.1662822 16.8806751,85.2142857 C19.6161025,85.267256 22.4942802,79.5139398 25.4746094,79.5510204 C27.6937172,79.5786301 29.9653774,85.1493238 32.2814343,85.2142855 C34.456155,85.2752829 36.5246922,79.5050613 38.7565964,79.5510204 C41.0559395,79.5983682 43.3537733,85.1261642 45.6855837,85.2142859 C48.0521538,85.3037212 50.3324085,79.4878542 52.7013561,79.5510204 C54.9140394,79.6100199 57.0857405,85.107707 59.2749116,85.2142858 C61.5310344,85.324124 63.7796792,79.4774505 65.9833432,79.5510204 C68.3989271,79.6316653 70.7319086,85.0507918 73.0483122,85.2142858 C75.4232636,85.3819121 77.7338115,79.4576932 79.9656913,79.5510204 C82.2998092,79.6486227 84.6032963,84.9629068 86.7354805,85.214286 C89.1234131,85.4958172 91.3199638,79.4532461 93.3891878,79.5510204 C95.7983587,79.6648578 98.3018157,84.5831395 100.190485,85.2142858 C105.201603,86.888877 109,79.5510204 109,79.5510204" id="Line-Copy-7" stroke="#1500A2" stroke-width="1.125" stroke-linecap="square" sketch:type="MSShapeGroup"></path>
                <path d="M0.320754717,96.5408165 C0.320754717,96.5408165 6.76754127,90.877551 9.44645489,90.877551 C11.6571139,90.877551 14.4017355,96.4928128 16.8806751,96.5408163 C19.6161025,96.5937866 22.4942802,90.8404704 25.4746094,90.877551 C27.6937172,90.9051607 29.9653774,96.4758544 32.2814343,96.5408161 C34.456155,96.6018135 36.5246922,90.8315919 38.7565964,90.877551 C41.0559395,90.9248988 43.3537733,96.4526948 45.6855837,96.5408165 C48.0521538,96.6302519 50.3324085,90.8143848 52.7013561,90.877551 C54.9140394,90.9365506 57.0857405,96.4342377 59.2749116,96.5408164 C61.5310344,96.6506547 63.7796792,90.8039811 65.9833432,90.877551 C68.3989271,90.9581959 70.7319086,96.3773224 73.0483122,96.5408164 C75.4232636,96.7084427 77.7338115,90.7842238 79.9656913,90.877551 C82.2998092,90.9751533 84.6032963,96.2894374 86.7354805,96.5408166 C89.1234131,96.8223478 91.3199638,90.7797767 93.3891878,90.877551 C95.7983587,90.9913884 98.3018157,95.9096701 100.190485,96.5408165 C105.201603,98.2154076 109,90.877551 109,90.877551" id="Line-Copy-8" stroke="#1500A2" stroke-width="1.125" stroke-linecap="square" sketch:type="MSShapeGroup"></path>
                <path d="M0.320754717,107.867347 C0.320754717,107.867347 6.76754127,102.204082 9.44645489,102.204082 C11.6571139,102.204082 14.4017355,107.819343 16.8806751,107.867347 C19.6161025,107.920317 22.4942802,102.167001 25.4746094,102.204082 C27.6937172,102.231691 29.9653774,107.802385 32.2814343,107.867347 C34.456155,107.928344 36.5246922,102.158123 38.7565964,102.204082 C41.0559395,102.251429 43.3537733,107.779225 45.6855837,107.867347 C48.0521538,107.956782 50.3324085,102.140915 52.7013561,102.204082 C54.9140394,102.263081 57.0857405,107.760768 59.2749116,107.867347 C61.5310344,107.977185 63.7796792,102.130512 65.9833432,102.204082 C68.3989271,102.284727 70.7319086,107.703853 73.0483122,107.867347 C75.4232636,108.034973 77.7338115,102.110754 79.9656913,102.204082 C82.2998092,102.301684 84.6032963,107.615968 86.7354805,107.867347 C89.1234131,108.148878 91.3199638,102.106307 93.3891878,102.204082 C95.7983587,102.317919 98.3018157,107.236201 100.190485,107.867347 C105.201603,109.541938 109,102.204082 109,102.204082" id="Line-Copy-9" stroke="#1500A2" stroke-width="1.125" stroke-linecap="square" sketch:type="MSShapeGroup"></path>
                <path d="M38.9260527,57.9559338 C39.1951951,58.3689157 39.4162347,58.7251749 39.5891783,59.024722 C41.2254906,61.8588981 42.3863724,64.6142009 43.0718583,67.290713 C44.1435736,71.4339882 44.059264,75.2768704 42.8189269,78.8194747 C41.233567,83.3600703 37.7924505,87.1594165 32.4954741,90.2176272 L15.8791726,99.8110534 L10.5911165,90.6518715 L27.207418,81.0584453 C30.2474218,79.3032983 31.8080181,76.5282264 31.8892537,72.7331463 C31.9627666,69.4033665 30.9751797,65.9642879 28.9264634,62.4158072 L17.4723343,42.5766736 L26.8341175,37.1716456 L38.2882466,57.0107792 C38.4443104,57.2279035 38.6569103,57.5429518 38.9260527,57.9559338 L38.9260527,57.9559338 Z M98.7757346,49.4621685 C97.6475428,52.2948475 95.6440811,54.5421888 92.7652896,56.2042599 C90.2780138,57.6402893 87.6649652,58.2733476 84.9260656,58.1034538 C81.8637391,57.9052311 79.0804616,56.7010652 76.5761493,54.4909202 C76.0726262,54.0442828 73.5026218,51.5341745 68.8660591,46.96052 C64.6603521,42.814012 61.2460297,39.6392841 58.6229894,37.4362411 C55.0230861,34.4453883 52.8188495,33.2602196 52.0102136,33.8806996 C51.5142754,34.3513663 51.247608,34.8202306 51.2102033,35.2873064 C51.1727986,35.7543823 51.3270375,36.2874593 51.6729246,36.8865535 L69.9715943,68.5807791 L60.6443565,73.9658624 L41.0885263,40.0941709 C39.3058771,37.0065318 39.1119698,33.9848081 40.5067987,31.0289089 C41.7122364,28.4895825 43.8809853,26.3157853 47.0131105,24.507452 C51.2046309,22.0874765 55.7497025,22.2744701 60.6484615,25.0684383 C63.9296544,26.9222195 68.1345812,30.5621612 73.2633679,35.9883727 C78.9125576,41.9436444 82.5960183,45.531348 84.3138606,46.7515912 C85.2472373,47.4108942 86.1399734,47.4945579 86.9920957,47.0025849 C87.4527024,46.7366535 87.7435444,46.3229572 87.8646306,45.7614837 C87.9857168,45.2000101 87.8600148,44.5966932 87.4875209,43.9515149 L69.2088062,12.2918523 L78.6051347,6.86687947 L98.2607395,40.9113857 C99.8039284,43.5842673 99.9755917,46.4344997 98.7757346,49.4621685 L98.7757346,49.4621685 Z" id="JN" fill="#1500A2" sketch:type="MSShapeGroup"></path>
            </g>
        </g>
    </g>
</svg>